# xmcd
#
# Track frame offsets:
#	150
#	11898
#	26175
#	36704
#	48773
#	61011
#	82408
#	93599
#	110437
#	122945
#	137692
#	151638
#
# Disc length: 2352 seconds
#
# Revision: 1
# Processed by: cddbd v1.5.1PL0 Copyright (c) Steve Scherf et al.
# Submitted via: audiograbber 1.82.02
#
DISCID=a3092e0c
DTITLE=Magic Frankie and Kaz Lux - Hearts In Sorrow
DYEAR=1900
DGENRE=Blues
TTITLE0=Comin' Home
TTITLE1=Sweet Pain
TTITLE2=Hearts In Sorrow
TTITLE3=Dentist Blues
TTITLE4=Walk Right In
TTITLE5=Cryin' Over You
TTITLE6=Cruel Train
TTITLE7=Wee Midnight Hour Blues
TTITLE8=Please Don't Bury Me
TTITLE9=I'm A Stranger Here
TTITLE10=Believe To My Soul
TTITLE11=Cannibals
EXTD=
EXTT0=
EXTT1=
EXTT2=
EXTT3=
EXTT4=
EXTT5=
EXTT6=
EXTT7=
EXTT8=
EXTT9=
EXTT10=
EXTT11=
PLAYORDER=
